<?xml version="1.0" standalone="no"?>
<!DOCTYPE svg PUBLIC "-//W3C//DTD SVG 1.1//EN" "http://www.w3.org/Graphics/SVG/1.1/DTD/svg11.dtd" >
<!--
2013-9-30: Created.
-->
<svg>
<metadata>
Created by iconfont
</metadata>
<defs>

<font id="iconfont" horiz-adv-x="1024" >
  <font-face
    font-family="iconfont"
    font-weight="500"
    font-stretch="normal"
    units-per-em="1024"
    ascent="896"
    descent="-128"
  />
    <missing-glyph />
    
    <glyph glyph-name="hongbao" unicode="&#59218;" d="M867.108 571.393c-16.3 0-29.51-13.212-29.51-29.512l0-506.594c0-22.24-18.095-40.335-40.335-40.335L226.732-5.048c-22.237 0-40.33 18.095-40.33 40.335L186.402 541.881c0 16.3-13.212 29.512-29.512 29.512-16.297 0-29.51-13.212-29.51-29.512l0-506.594c0-54.785 44.57-99.355 99.352-99.355l570.531 0c54.785 0 99.355 44.57 99.355 99.355L896.618 541.881C896.618 558.181 883.403 571.393 867.108 571.393L867.108 571.393zM797.263 832.065 226.732 832.065c-54.782 0-99.352-44.57-99.352-99.35l0-97.982c0-14.267 10.21-26.492 24.25-29.037l355.489-64.425c1.74-0.315 3.502-0.473 5.262-0.473 1.765 0 3.533 0.158 5.273 0.475l354.724 64.427c14.035 2.548 24.24 14.77 24.24 29.035l0 97.98c0 54.782-44.57 99.352-99.355 99.352L797.263 832.065zM837.598 659.366l-325.222-59.065L186.4 659.376l0 73.34c0 22.237 18.095 40.33 40.332 40.33l570.531 0c22.235 0 40.33-18.092 40.33-40.33l0-73.347L837.598 659.366z"  horiz-adv-x="1024" />

    
    <glyph glyph-name="zhoubianyou" unicode="&#58899;" d="M936.0256 56.17536C922.4576 31.98336 899.1616 18.15936 871.8976 18.15936L121.9456 18.15936C93.5296 18.15936 82.3936 28.52736 70.7456 52.07936 58.4576 77.03936 63.8336 113.39136 80.0896 137.07136L244.9536 331.88736C290.2656 387.18336 340.5696 382.95936 378.2016 340.71936 402.7776 313.19936 443.6096 264.94336 443.6096 264.94336 460.8896 249.45536 481.2416 234.35136 504.1536 234.35136 526.6816 234.35136 544.4736 263.53536 555.9936 283.63136L655.7056 434.67136C669.2736 458.47936 689.4976 472.04736 716.5056 472.04736 743.5136 472.17536 769.3696 458.73536 783.0656 435.05536L935.5136 130.15936C949.3376 106.09536 949.5936 80.36736 936.0256 56.17536M279.1296 703.98336C344.0256 703.98336 396.6336 651.37536 396.6336 586.35136 396.6336 521.45536 344.0256 468.71936 279.1296 468.71936 214.1056 468.71936 161.4976 521.45536 161.4976 586.35136 161.4976 651.37536 214.1056 703.98336 279.1296 703.98336"  horiz-adv-x="1024" />

    
    <glyph glyph-name="liren" unicode="&#58916;" d="M600.568448 0.82192C629.598848 0.82192 660.510848 21.60752 636.713088 55.32912 606.231168 98.48432 571.771008 140.93552 578.831488 175.99472 590.389888 233.52912 795.663488 403.01712 649.006208 560.02672 638.881408 538.32592 674.273408 632.45072 740.111488 563.19472 839.836288 458.29872 591.088768 293.40432 776.220288 174.21712 832.148608 138.20752 907.986048 181.18672 955.151488 228.79472 801.469568 205.79152 796.971648 316.09072 829.711488 351.99472 1025.648768 566.94352 723.087488 744.72112 621.051008 595.82512 584.852608 640.59952 520.448128 704.02992 399.631488 703.99472 333.219968 703.99472 237.795968 686.55312 171.169408 599.45072 154.700928 577.92592 218.693248 558.90032 202.511488 527.99472 140.544128 409.72272 96.030848 398.49392 77.071488 387.19472 57.251968 375.40272 62.251648 362.02672 77.071488 351.99472 104.775808 333.21552 130.831488 316.79472 130.831488 316.79472 130.831488 316.79472 119.111808 123.19472 184.591488 123.19472 255.626368 123.19472 339.617408 130.86832 363.791488 70.39472 391.083648 2.08912 405.043328 0.87472 462.763648 0.87472 520.483968 0.87472 571.538048 0.82192 600.568448 0.82192"  horiz-adv-x="1025" />

    
    <glyph glyph-name="xiaochikuaican" unicode="&#58923;" d="M260.650667 394.371292 431.424 394.371292C431.424 394.261577 431.317333 394.261577 431.317333 394.151863 431.317333 345.767863 469.504 306.490148 516.544 306.490148 563.584 306.490148 601.664 345.767863 601.664 394.151863 601.664 394.261577 601.557333 394.261577 601.557333 394.371292L773.930667 394.371292C784.490667 394.371292 793.450667 390.092435 800.277333 381.754148 807.104 373.525577 809.770667 363.651292 808.064 353.009005L742.144 56.45129C739.370667 28.693574 713.130667 3.020435 672.917333 3.020435L361.557333 3.020435C310.250667 4.556435 295.210667 39.00672 292.437333 56.45129L226.517333 353.009005C224.810667 363.651292 227.477333 373.525577 234.304 381.754148 241.130667 390.092435 250.090667 394.371292 260.650667 394.371292L260.650667 394.371292ZM286.144 447.58272 285.824 447.58272C268.650667 447.58272 254.357333 460.090148 251.690667 477.53472L192.490667 673.045577C190.784 683.687863 193.557333 693.452435 200.384 701.681005 207.210667 709.909577 216.170667 714.188434 226.624 714.188434L226.944 714.188434C244.117333 714.188434 258.410667 701.571292 261.077333 684.12672L320.277333 488.725577C321.984 477.973577 319.210667 468.209005 312.384 459.980435 305.557333 451.751863 296.597333 447.58272 286.144 447.58272L286.144 447.58272ZM381.824 643.203292 381.610667 643.203292C381.610667 643.203292 381.610667 643.203292 381.504 643.203292L381.824 643.203292ZM399.210667 447.58272 399.424 447.58272 399.530667 447.58272 399.210667 447.58272ZM399.424 447.58272C382.144 447.58272 367.850667 460.419292 365.290667 477.973577L347.584 602.499292C346.090667 613.141577 348.864 622.796435 355.690667 630.915292 362.410667 638.924435 371.264 643.093577 381.610667 643.203292 398.997333 643.093577 413.290667 630.36672 415.744 612.812435L433.450667 488.28672C434.944 477.644435 432.277333 467.989577 425.450667 459.87072 418.624 451.751863 409.770667 447.58272 399.424 447.58272L399.424 447.58272ZM517.290667 446.924435C507.690667 446.924435 499.584 450.325577 492.757333 457.347292 486.037333 464.259292 482.624 472.597577 482.624 482.471863L482.624 679.079863C482.624 698.71872 498.090667 714.627291 517.290667 714.627291 536.384 714.627291 551.850667 698.71872 551.850667 679.079863L551.850667 482.471863C551.850667 472.597577 548.437333 464.259292 541.717333 457.347292 534.997333 450.325577 526.784 446.924435 517.290667 446.924435L517.290667 446.924435ZM662.037333 477.863863C659.477333 460.309577 645.077333 447.58272 627.797333 447.58272L627.370667 447.58272C616.917333 447.58272 608.064 451.751863 601.237333 459.87072 594.410667 467.989577 591.637333 477.754148 593.237333 488.396435L648.490667 737.667291C651.050667 755.221577 665.344 767.948434 682.730667 767.948434L683.050667 767.948434C693.504 767.948434 702.464 763.779291 709.290667 755.660434 716.117333 747.541577 718.784 737.777006 717.290667 727.13472L662.037333 477.863863ZM829.397333 634.535863 771.584 473.914148C767.530667 458.115292 754.197333 447.473005 738.304 447.473005L736.170667 447.473005C725.077333 447.473005 715.477333 452.300435 708.757333 461.297005 701.930667 470.403292 699.797333 481.045577 702.677333 492.12672L760.170667 652.748435C764.224 668.657005 777.664 679.299292 793.557333 679.299292L796.010667 679.299292C807.104 679.299292 816.597333 674.471863 823.424 665.365577 830.144 656.259292 832.277331 645.617005 829.397333 634.535863L829.397333 634.535863Z"  horiz-adv-x="1024" />

    
    <glyph glyph-name="gongyi" unicode="&#58996;" d="M576.549356 896l-129.098712 0C207.656652 896 11.444921 699.788269 11.444921 459.902718l0-151.896996c0-239.793991 196.211731-436.005722 436.005722-436.005722l129.098712 0c239.793991 0 436.005722 196.211731 436.005722 436.005722L1012.555079 459.902718C1012.555079 699.788269 816.343348 896 576.549356 896zM366.51216 649.522175c60.154506 0 115.090129-28.200286 161.876967-79.381974 46.786838 51.181688 101.722461 79.381974 161.876967 79.381974 63.542203 0 118.203147-25.270386 155.284692-75.353362 33.602289-45.505007 40.286123-109.779685 21.058655-175.702432 0 0 0 0 0 0l0 0c0 0 0 0 0 0-20.143062 1.739628-46.51216 2.472103-74.529328-0.274678 29.11588 54.111588 21.150215 101.173104-3.387697 135.599428C768.274678 562.632332 731.376252 579.937053 690.357654 579.937053c-59.788269 0-125.985694-46.51216-161.876967-123.788269C493.505007 532.32618 428.497854 579.937053 366.51216 579.937053c-41.018598 0-89.087268-15.107296-111.97711-72.69814-25.911302 13.550787-52.005722 29.298999-57.499285 42.20887C228.074392 613.539342 296.652361 649.522175 366.51216 649.522175zM885.287554 366.695279C885.287554 366.695279 885.287554 366.695279 885.287554 366.695279c-56.125894-5.218884-70.042918-58.323319-104.011445-92.383405-29.573677-29.573677-56.400572-49.258941-90.552217-72.972818-48.709585-33.876967-107.032904-69.218884-162.334764-150.432046-34.243205 51.914163-74.712446 87.25608-112.526466 115.273247-76.452074 56.76681-183.118741 78.741059-238.145923 161.785408-36.165951 54.752504-51.822604 187.422031-14.832618 239.702432-24.537911-75.078684 145.762518-105.842632 184.858369-159.404864-0.549356 15.290415 3.387697 33.144492 2.746781 48.434907 23.713877-35.158798 56.76681-72.423462 85.333333-108.314735 39.645207-49.899857 89.728183-141.733906 103.462089-227.982833 55.576538 71.507868 62.260372 178.082976 156.749642 227.708155-9.155937-11.811159-9.155937-23.988555-10.071531-39.095851C717.367668 385.831187 855.713877 370.90701 885.287554 366.695279 885.287554 366.695279 885.287554 366.695279 885.287554 366.695279L885.287554 366.695279zM866.701001 398.466381 866.701001 398.466381 866.701001 398.466381ZM885.287554 366.695279 885.287554 366.695279 885.287554 366.695279Z"  horiz-adv-x="1024" />

    
    <glyph glyph-name="dache" unicode="&#58880;" d="M990.277 403.758c0 27.912-34.886 50.552-77.921 50.553-13.985 0-27.077-2.414-38.416-6.595l-58.991 168.39c-13.564 22.359-15.271 46.331-36.789 46.331h-92.801l-13.252 68.048c-5.472 19.263-31.521 27.186-53.037 27.186h-212.116c-21.514 0-47.737-7.923-53.027-27.186l-13.261-68.048h-92.804c-21.514 0-27.467-26.743-36.8-46.33l-58.967-168.39c-11.35 4.182-24.462 6.595-38.437 6.594-43.035 0-77.913-22.641-77.913-50.553 0-27.91 34.879-50.551 77.913-50.551 0.352 0 0.692 0.038 1.044 0.038 0.201-1.246 0.281-2.414 0.583-3.699-3.619-63.221 31.31-268.976 37.341-299.702 7.842-34.546 20.692-40.459 42.208-40.459h79.54c21.514 0 34.104 18.138 34.105 40.458v43.877c10.124-1.044 20.681-2.012 32.182-2.694 125.52-7.562 237.061-8.485 344.693 0 11.323 0.885 21.929 1.97 32.194 3.137v-44.32c0-22.321 12.578-40.458 34.094-40.458h79.55c21.516 0 36.787 16.972 42.198 40.459 12.619 36.679 63.648 252.924 50.363 303.965 37.612 3.578 66.518 24.532 66.518 49.95zM247.863 186.263c-43.938 0-79.539 36.557-79.539 81.64s35.601 81.642 79.539 81.642c43.927 0 79.551-36.557 79.551-81.643s-35.623-81.641-79.551-81.641zM645.583 417.553c-55.236-7.522-196.782-4.745-238.627 0-41.856 4.705-137.452 16.53-137.452 16.53-21.517 0-38.961 18.137-38.961 40.459l19.497 80.88c8.101 28.433 16.085 39.010 37.604 39.010h450.745c21.527 0 29.491-10.577 37.615-39.010l19.477-80.879c0-22.321-17.444-40.458-38.961-40.459-0.002-0.001-55.684-8.971-110.934-16.53zM791.423 186.263c-43.935 0-79.55 36.557-79.55 81.641s35.613 81.642 79.55 81.642c43.918 0 79.539-36.558 79.539-81.642s-35.622-81.64-79.539-81.64z"  horiz-adv-x="1024" />

    
    <glyph glyph-name="arrow-bottom" unicode="&#58885;" d="M532.207 177.866v0c3.079 1.777 6.39 3.079 9.112 5.802 0.477 0.594 0.827 1.064 1.303 1.539 0.594 0.709 1.539 0.946 2.128 1.54l319.434 331.383c8.519 8.757 12.781 20.121 12.781 31.483 0 11.836-4.733 23.79-13.964 32.666-18.107 17.398-46.871 16.924-64.265-1.183l-288.071-298.956-283.922 300.139c-17.28 18.225-46.040 19.057-64.265 1.777-18.226-17.281-19.057-46.040-1.777-64.265l316.355-334.462c13.844-14.676 35.149-17.399 52.429-9.113 0.945 0.35 1.777 1.182 2.722 1.653v0zM532.207 177.866z"  horiz-adv-x="1024" />

    
    <glyph glyph-name="ic_restaurant_px" unicode="&#59135;" d="M469.333333 512h-85.333333V810.666667h-85.333333v-298.666667h-85.333334V810.666667H128v-298.666667c0-90.666667 70.826667-164.053333 160-169.6V-42.666667h106.666667V342.4c89.173333 5.546667 160 78.933333 160 169.6V810.666667h-85.333334v-298.666667z m213.333334 128v-341.333333h106.666666v-341.333334h106.666667V810.666667c-117.76 0-213.333333-95.573333-213.333333-170.666667z"  horiz-adv-x="1024" />

    
    <glyph glyph-name="meituan" unicode="&#58906;" d="M512 895C229.782 895 1 666.218 1 384c0-282.217 228.782-511 511-511 282.217 0 511 228.783 511 511C1023 666.218 794.217 895 512 895zM198.523 410.367c29.297-1.968 64.453-2.93 105.469-2.93h184.57V474.82H377.234c-33.233 0-66.422-1.007-99.609-2.93v46.875a1681.967 1681.967 0 0 1 99.609-2.93h111.328v70.313H339.148c-31.266 0-65.46-1.007-102.539-2.93v49.805c37.079-1.968 71.273-2.93 102.539-2.93h61.523c-11.719 21.469-29.297 45.868-52.734 73.242 15.609 9.75 30.258 19.501 43.945 29.297l61.523-79.102c-17.578-7.828-32.227-15.655-43.945-23.438h158.203c17.578 27.329 36.117 63.446 55.664 108.398 15.609-11.719 35.156-22.476 58.594-32.227-9.796-7.828-29.297-33.233-58.594-76.172H699.5c39.047 0 69.306 0.961 90.82 2.93v-49.805c-21.515 1.923-51.773 2.93-90.82 2.93H541.297v-70.313h120.117c31.22 0 61.523 0.961 90.82 2.93v-46.875c-29.297 1.923-59.601 2.93-90.82 2.93H541.297v-67.383h184.57c37.079 0 71.273 0.961 102.539 2.93v-49.805c-29.297 1.923-63.492 2.93-102.539 2.93H303.992c-41.016 0-76.172-1.007-105.469-2.93v49.807z m612.305-369.14c-44.952 9.796-83.038 21.973-114.258 36.621-31.266 14.648-62.988 34.195-95.215 58.594s-61.065 54.199-86.426 89.355c-17.578-29.297-34.698-52.734-51.27-70.313-16.617-17.578-37.628-34.195-62.988-49.805-25.406-15.609-51.773-28.793-79.102-39.551-27.374-10.712-56.671-20.004-87.891-27.832-5.859 17.578-17.578 36.163-35.156 55.664 33.188 3.937 68.344 11.719 105.469 23.438 37.079 11.719 70.313 28.793 99.609 51.27 29.297 22.431 49.805 47.333 61.523 74.707H356.727c-42.984 0-87.891-1.007-134.766-2.93V290.25c46.875-1.969 91.781-2.93 134.766-2.93h120.117c1.923 25.36 2.93 46.875 2.93 64.453 25.36-7.828 47.836-11.719 67.383-11.719-5.859-17.578-10.758-35.156-14.648-52.734h143.555c50.766 0 94.711 0.961 131.836 2.93v-49.805c-37.125 1.923-80.108 2.93-128.906 2.93H558.875c23.438-27.374 46.371-48.844 68.848-64.453 22.431-15.655 42.48-27.374 60.059-35.156 17.578-7.828 38.086-15.152 61.523-21.973s55.664-13.184 96.68-19.043c-11.719-17.578-23.438-38.086-35.157-61.523z"  horiz-adv-x="1024" />

    
    <glyph glyph-name="xinxinicon" unicode="&#58891;" d="M1004.223 675.637c45.796 0 82.98 36.794 82.98 82.59s-37.185 82.98-82.98 82.98c-45.601 0-82.786-37.185-82.786-82.98s37.185-82.59 82.786-82.59zM1007.747 474.447c-11.939-0.195-25.051 5.872-34.445 20.747l-53.819 84.351-110.967-109.989 102.944-54.211c42.273-20.354 36.011-57.538 36.011-57.538v-233.286c0-26.226-21.529-47.753-47.95-47.753-26.226 0-47.557 21.529-47.557 47.753v186.707l-178.487 99.226c-21.332 11.939-35.815 34.641-35.815 60.671 0 17.81 6.459 34.249 17.81 46.384l175.357 175.551c21.529 24.66 51.863 20.747 51.863 20.747 36.794 0 55.973-32.097 55.973-32.097l91.005-142.672 138.367 0.195c49.515 0 49.515-64.78 0-64.78h-160.287zM1228.507 380.311c-124.863 0-226.045-101.182-226.045-226.045s101.182-225.849 226.045-225.849c124.47 0 225.654 100.986 225.654 225.849 0 125.059-101.182 226.045-225.654 226.045zM1228.312-10.132c-90.613 0-164.201 73.587-164.201 164.397s73.587 164.397 164.201 164.397 164.397-73.587 164.397-164.397-73.782-164.397-164.397-164.397zM579.533 380.311c-124.276 0-225.654-101.182-225.654-226.045s101.378-225.849 225.654-225.849c125.059 0 226.24 100.986 226.24 225.849s-101.182 226.045-226.24 226.045zM579.729-10.132c-90.613 0-164.201 73.587-164.201 164.397 0 90.613 73.587 164.397 164.201 164.397s164.397-73.782 164.397-164.397c0-90.81-73.587-164.397-164.397-164.397z"  horiz-adv-x="1834" />

    
    <glyph glyph-name="mianliuliangfuwu" unicode="&#59069;" d="M388.654545 425.890909h246.69091v-246.690909H388.654545zM807.563636 626.036364L656.290909 756.363636c-16.290909 13.963636-39.563636 23.272727-62.836364 23.272728H279.272727C225.745455 779.636364 183.854545 737.745455 183.854545 684.2181820000001V81.45454500000005c0-51.2 41.890909-95.418182 95.418182-95.418181h465.454546c51.2 0 95.418182 41.890909 95.418182 95.418181V553.890909c0 27.927273-11.636364 53.527273-32.581819 72.145455z m-79.127272-463.127273c0-41.890909-34.909091-76.8-76.8-76.8H372.363636c-41.890909 0-76.8 34.909091-76.8 76.8V444.509091c0 41.890909 34.909091 76.8 76.8 76.8h279.272728c41.890909 0 76.8-34.909091 76.8-76.8v-281.6z"  horiz-adv-x="1024" />

    
    <glyph glyph-name="xiuxianyule" unicode="&#58967;" d="M734.72 566.784l-273.408-250.88v-231.424c112.128-4.096 195.072-27.648 195.072-56.32 0-31.232-101.376-31.232-230.912-31.232-129.024 0-230.912 0-230.912 31.232 0 28.16 83.968 51.712 195.584 56.32v230.912L116.224 566.784c-13.824 12.288-23.04 45.568 7.68 45.568h610.816c24.064 0 13.824-32.768 0-45.568z m-36.352-199.68c-20.48 2.048-35.328 19.968-33.792 39.936 2.048 19.968 19.968 35.328 40.448 33.28 4.096-0.512 8.192-0.512 12.288-0.512 71.68 0 130.56 57.856 130.56 129.024 0 71.168-58.368 129.024-130.56 129.024-32.256 0-62.976-11.776-87.04-33.28-15.36-13.824-38.912-12.288-52.736 2.56-13.824 14.848-12.288 38.4 2.56 52.224 37.888 33.792 86.528 52.224 137.216 52.224 113.152 0 204.8-90.624 204.8-202.24s-91.648-202.24-204.8-202.24c-6.144-1.024-12.8-1.024-18.944 0"  horiz-adv-x="1024" />

    
    <glyph glyph-name="shouyekongxin" unicode="&#58881;" d="M512.012041 847.810348c5.454751-0.204704 9.139417-1.216181 23.167639-14.654374l425.651176-425.651176c7.381373-8.091816 13.775353-19.627469 14.967451-24.347695-1.011477-13.028786-24.600564-36.292756-37.123613-36.31684h-105.061147v-275.7238c0-15.316651 0.385325-30.103481 0.758607-44.420696 1.011477-39.086359 2.287865-87.709501-9.77761-100.100094-3.973659-4.082032-14.244967-6.430103-28.152775-6.430104H673.932643V261.502916H350.055315v-341.325305H256c-40.82032 0-65.613547 10.162935-65.613547 150.938852V346.840263H85.325306C72.47714 346.840263 48.165569 371.151834 48.165569 383.939793c0.180621 4.009784 5.767827 14.883161 13.076952 21.686548l0.638194 0.590028 0.614111 0.614111L489.16952 833.505174l0.43349 0.445532 0.43349 0.445531c6.755221 7.116463 17.616557 12.836124 21.975541 13.414111M512 896c-20.32587 0-43.866792-14.726623-56.895579-28.441769L28.441769 440.895579C14.329257 427.770461 0 404.855691 0 384c0-39.616181 45.877705-85.325306 85.325306-85.325306h4.744308-4.744308 56.895578v-227.558231c0-105.277893 8.982879-199.104421 113.779116-199.104422h142.220884V213.337347h227.54619v-341.325306h170.662653c104.772154 0 85.325306 93.850611 85.325306 199.104422V298.674694h56.895578c39.387394 0.048166 85.325306 45.769332 85.325306 85.325306 0.024083 19.049483-16.448542 44.059454-28.441768 56.895579L568.883537 867.558231C550.183255 885.548071 536.13095 895.373848 512 896z m0 0h-7.61016 7.61016z"  horiz-adv-x="1024" />

    
    <glyph glyph-name="post" unicode="&#58882;" d="M839.68-125.72444444999996L184.32-125.72444444999996c-60.22030222 0-109.22666667 49.00636445-109.22666667 109.22666667L75.09333333 711.6800000000001c0 60.22030222 49.00636445 109.22666667 109.22666667 109.22666667l509.72444445 0c20.13411555 0 36.40888889-16.31118222 36.40888888-36.40888889s-16.27477333-36.40888889-36.40888888-36.40888889L184.32 748.08888889C164.25870222 748.08888889 147.91111111 731.74129778 147.91111111 711.6800000000001l0-728.17777778c0-20.09770667 16.34759111-36.40888889 36.40888889-36.40888889l655.36 0c20.09770667 0 36.40888889 16.31118222 36.40888889 36.40888889L876.08888889 566.04444445c0 20.09770667 16.27477333 36.40888889 36.40888889 36.40888888s36.40888889-16.31118222 36.40888889-36.40888888l0-582.54222223C948.90666667-76.71807999999999 899.90030222-125.72444444999996 839.68-125.72444444999996zM511.63591111 349.04746666999995c-9.39349333 0-18.78698667 3.60448-25.88672 10.81344-14.12664889 14.30869333-14.01742222 37.35552 0.29127111 51.48216888L961.97745778 882.0736c14.34510222 14.16305778 37.35552 13.98101333 51.48216889-0.29127111 14.16305778-14.30869333 14.01742222-37.35552-0.29127112-51.48216889L537.23136 359.56963555000004C530.13162667 352.54272000000003 520.88376889 349.04746666999995 511.63591111 349.04746666999995z"  horiz-adv-x="1024" />

    
    <glyph glyph-name="shezhikongxin" unicode="&#59211;" d="M679.296-99.264c-23.68 0-48.192 9.92-62.4 25.28l-10.944 11.648c-49.472 47.04-136.96 48.704-190.72-2.752l-8.064-8.896c-16-17.28-43.648-25.024-63.936-25.024-8.384 0-16.064 1.28-22.784 3.712 0 0-18.944 6.592-64.256 32.832-38.144 22.08-55.36 35.2-59.776 38.72-23.872 20.416-34.88 58.496-25.856 87.424l4.928 16.576A138.496 138.496 0 0 1 77.44 242.624l-11.648 2.56c-29.504 6.72-56.768 35.456-62.016 65.344C2.048 314.56 0 346.048 0 382.464c0 47.232 3.072 69.696 4.16 74.368 4.864 27.648 32 56.192 61.376 62.912l17.6 4.096A135.68 135.68 0 0 1 160 586.496a138.88 138.88 0 0 1 14.144 103.168l-3.776 11.904c-8.96 28.928 1.856 66.688 24.64 86.08 4.8 3.968 22.016 17.28 60.864 39.744 40.768 23.616 60.352 31.36 63.936 32.64C327.296 862.72 335.168 864 343.616 864c18.56 0 46.336-6.592 63.36-25.088l12.16-12.992c46.272-43.712 137.984-44.672 189.056 3.648l8.704 9.536c22.464 24.192 63.424 29.44 86.528 21.248 3.968-1.472 23.552-9.28 64.448-32.832 41.152-23.872 58.88-37.824 62.336-41.216 21.12-17.856 32.192-55.872 23.232-84.8l-5.12-16.96a138.176 138.176 0 0 1 15.424-98.112c17.856-30.976 46.336-53.12 82.176-63.872l12.032-2.688c29.504-6.784 56.64-35.392 61.952-65.216 1.28-2.624 3.904-29.568 3.968-71.872 0-43.776-2.752-69.184-4.544-75.52-4.544-26.56-31.744-55.168-61.184-61.888l-15.488-3.712a137.28 137.28 0 0 1-78.912-63.168 139.264 139.264 0 0 1-14.016-103.104l3.776-11.968a86.144 86.144 0 0 0-25.28-86.4c-3.136-2.624-19.52-15.808-60.224-39.36-43.392-25.024-62.4-32.064-64.448-32.832a68.16 68.16 0 0 0-24.256-4.096zM512 38.592c52.096 0 101.632-19.84 139.392-55.872l12.352-13.12a26.88 26.88 0 0 1 15.552-4.864c1.92 0 2.816 0.256 2.88 0.256 0 0 16.512 6.4 53.888 27.968 36.928 21.376 51.008 32.832 51.136 32.96 3.584 3.008 6.72 13.824 5.248 18.688l-4.288 14.016c-12.736 53.824-5.376 107.008 20.288 151.744a202.048 202.048 0 0 0 117.888 93.056l17.472 4.224c4.736 1.088 12.608 9.408 13.44 13.952 0 0.128 2.816 17.792 2.816 61.056-0.128 42.88-2.944 60.48-3.008 60.672-0.832 4.672-8.704 13.056-13.184 14.08l-14.144 3.2c-53.952 16.128-95.104 48.384-121.344 93.824a203.392 203.392 0 0 0-21.76 146.752l5.696 18.944c1.408 4.672-1.792 16-5.44 19.072-0.064 0.064-13.824 11.264-51.008 32.832-37.568 21.696-54.272 28.096-54.464 28.16a39.808 39.808 0 0 1-17.92-5.056l-9.664-10.56c-78.208-74.304-206.72-73.28-279.936-3.84l-13.696 14.528a32.96 32.96 0 0 1-16.512 4.672c-1.728 0-18.112-6.208-55.68-28.032-36.416-21.056-50.432-32.256-51.968-33.472-2.688-2.304-6.016-13.056-4.48-17.984l4.288-13.888c12.928-53.76 5.504-107.008-20.288-152a200.128 200.128 0 0 0-115.968-92.544l-19.712-4.608C75.328 456.32 67.52 448 66.688 443.456c0 0-2.752-17.664-2.752-60.992 0-43.2 2.752-60.672 2.752-60.864 0.832-4.544 8.704-12.928 13.184-13.952l13.504-3.008c53.12-15.488 95.744-48.704 121.984-93.952 25.92-45.12 33.6-97.28 21.824-146.88l-5.504-18.688c-1.536-4.928 1.728-16.256 5.376-19.392 0.768-0.576 15.168-11.968 51.072-32.704 37.44-21.696 53.888-28.032 54.08-28.032a36.672 36.672 0 0 1 18.176 4.992l9.088 9.92c40.256 38.272 90.368 58.688 142.528 58.688zM512 192c-105.856 0-192 86.144-192 192s86.144 192 192 192 192-86.144 192-192-86.144-192-192-192z m0 320c-70.592 0-128-57.472-128-128 0-70.528 57.408-128 128-128s128 57.472 128 128c0 70.528-57.408 128-128 128z"  horiz-adv-x="1024" />

    
    <glyph glyph-name="weikaifapiao" unicode="&#59723;" d="M868.2 832H155.8c-39.5 0-71.4-30.9-71.4-68.9v-687.8c0-20.6 9.8-40 26.9-53.2 1.4-2.2 3.6-4.7 6-6.9l73.1-67.1c8.6-7.8 19.8-12.2 31.9-12.2 12.1 0 23.4 4.3 32.1 12.3l63 57.7 62.2-57.3c8.6-7.8 19.9-12.2 31.9-12.2s23.4 4.3 32.1 12.3L506 6l69.5-57.3c8.4-7.4 19.5-11.5 31.1-11.5 12 0 23.4 4.3 32.1 12.3l62.2 57.1h5.8l62.3-57.2c8.6-7.8 19.9-12.2 31.9-12.2 12.1 0 23.4 4.3 32 12.3l73.8 67.6c1 1 1.9 1.8 2.8 2.8 19 12.7 30.3 33 30.3 55.5V763.3c-0.3 37.9-32.2 68.7-71.6 68.7z m9.4-771.5l-7.3-6.6h-0.1l-69.4-63.7-65.5 60.1-17.2 6.8-27.8 0.2-17.3-6.5-66.5-60.8-74.7 61.2-16.1 5.9-19.6 0.1-17.3-6.5-67.1-61.2-66.2 60.7-17.2 6.8-20.6 0.2-17.3-6.5-67.7-61.9-68.7 63-0.1-0.2-7.4 8.5c-6 4-9.2 9.2-9.2 15l2.5 672.7c0 10 17.2 28.1 27.6 28.1h689.8c10.3 0 27.6-18 27.6-28.1l2.5-672.7c-0.4-5.6-3.9-11.2-9.7-14.6z m-610 506.8h285.1v61.1H267.6v-61.1z m488.8-101.8H267.6v-61.1h488.7v61.1z m0-163H267.6v-61.1h488.7v61.1z"  horiz-adv-x="1024" />

    
    <glyph glyph-name="waimai1" unicode="&#58883;" d="M179.2 748.8h179.2c19.2 0 38.4 19.2 38.4 38.4s-19.2 38.4-38.4 38.4H179.2c-19.2 0-38.4-19.2-38.4-38.4s19.2-38.4 38.4-38.4z m480-352h281.6c38.4 0 70.4 32 70.4 70.4V633.6c0 38.4-32 70.4-70.4 70.4h-281.6c-38.4 0-70.4-32-70.4-70.4v-166.4c-6.4-38.4 25.6-70.4 70.4-70.4z m313.6-140.8h12.8c19.2 0 38.4 19.2 38.4 38.4s-19.2 38.4-38.4 38.4h-640V697.6c0 19.2-19.2 38.4-38.4 38.4H192c-12.8 0-32-6.4-38.4-25.6L38.4 416c0-6.4-38.4-89.6 6.4-172.8-25.6-25.6-44.8-70.4-44.8-115.2 0-102.4 83.2-179.2 179.2-179.2 96 0 172.8 76.8 179.2 172.8h294.4c6.4-96 83.2-172.8 179.2-172.8 102.4 0 179.2 83.2 179.2 179.2 12.8 51.2-6.4 96-38.4 128zM179.2 25.600000000000023c-57.6 0-102.4 44.8-102.4 102.4 0 57.6 44.8 102.4 102.4 102.4s102.4-44.8 102.4-102.4c0-57.6-44.8-102.4-102.4-102.4z m665.6 0c-57.6 0-102.4 44.8-102.4 102.4 0 57.6 44.8 102.4 102.4 102.4s102.4-44.8 102.4-102.4c-6.4-57.6-51.2-102.4-102.4-102.4z"  horiz-adv-x="1024" />

    
    <glyph glyph-name="fangdajing" unicode="&#58947;" d="M840.192 68.096l-146.432 170.496-9.216 10.24a322.56 322.56 0 0 1 87.04 204.8 328.192 328.192 0 0 1-76.8 230.912l-11.264 11.776-8.704 8.704-9.216 7.68-16.896 14.336-7.168 5.12-13.824 10.24-13.312 11.264-7.168 4.096A289.792 289.792 0 0 1 492.544 793.6h-46.08A307.2 307.2 0 0 1 153.6 486.4v-8.704a315.392 315.392 0 0 1 290.304-328.192 335.36 335.36 0 0 1 151.04 33.792c3.072-3.584 5.632-9.728 11.776-16.384l146.432-170.496a62.464 62.464 0 0 1 43.52-21.504 51.2 51.2 0 0 1 35.84 14.336 51.2 51.2 0 0 1 7.68 78.848zM460.8 230.4a256 256 0 0 0-204.8 102.4 268.288 268.288 0 0 0-37.376 153.6 249.856 249.856 0 0 0 244.736 245.76h12.8a237.568 237.568 0 0 0 166.912-85.504 256 256 0 0 0 63.488-185.344 273.408 273.408 0 0 0-19.456-86.528A256 256 0 0 0 460.8 230.4z"  horiz-adv-x="1024" />

    
    <glyph glyph-name="cuo" unicode="&#58944;" d="M857.93338013 77.92098426999996l-305.12114525 305.12114524 305.11187554 305.1165104-41.5453148 41.54531479-305.11187553-305.11651039-305.11187553 305.11651039-41.54531479-41.54531479 305.11187553-305.1165104-305.11187553-305.11651039 41.54531479-41.54067993 305.11187553 305.11187553 305.12114525-305.11651038z"  horiz-adv-x="1024" />

    
    <glyph glyph-name="KTV" unicode="&#59143;" d="M439.4 299.9c40.4-22.4 80.7-35.9 114.4-40.4L345.2-40.9c-22.4-31.4-67.3-26.9-96.4-11.2L215.2-31.9c-26.9 15.7-53.8 53.8-38.1 89.7L329.6 394.1c20.1-31.4 60.4-65 109.8-94.2m309.4 76.3c-40.4-47.1-83-69.5-127.8-71.8l-2.2 2.2c-31.4-9-94.2 9-159.2 49.3-65 40.4-114.3 85.2-121.1 116.6h-2.2c-17.9 38.1-20.2 85.2-2.2 143.5 42.5-56 105.3-112 183.7-159.1 78.5-44.8 161.5-74 231-80.7m49.3 71.7c-4.5-9-9-15.7-13.5-22.4-65 2.2-152.5 29.1-242.2 80.7C457.3 557.8 390 618.3 354.2 674.4l13.5 26.9c78.5 139 219.7 163.7 338.6 94.2 121-71.8 168-213 91.8-347.6z"  horiz-adv-x="1024" />

    
    <glyph glyph-name="VIP-" unicode="&#58922;" d="M1799.757576 831.937439H207.202346c-33.032258 0-64.062561-13.012708-87.085044-36.035191s-36.035191-54.052786-36.035191-87.085044v-649.634408c0-33.032258 13.012708-64.062561 36.035191-87.085044s54.052786-36.035191 87.085044-36.035191h1593.556207c32.031281 0 64.062561 13.012708 87.085044 36.035191s36.035191 54.052786 36.035191 87.085044v650.635386c0 33.032258-13.012708 64.062561-36.035191 87.085044-24.02346 23.022483-55.053763 35.034213-88.086021 35.034213zM550.537634 118.240469c-21.020528 0-39.038123 20.01955-55.053763 60.058651L312.304985 650.760508h142.138808l124.121212-324.316715 206.201368 324.316715h143.139785L620.606061 177.298143c-25.024438-40.039101-49.047898-59.057674-70.068427-59.057674z m335.327469 8.00782l74.072336 525.513197H1091.065494l-74.072337-525.513197H885.865103z m806.787878 328.320626c-8.00782-59.057674-36.035191-107.104594-82.080156-144.140763-44.043011-35.034213-95.092864-52.050831-153.14956-52.05083h-220.215054l-19.018573-132.129033h-131.128054l38.037145 267.260997h363.354839c17.016618 0 34.033236 6.005865 48.046921 17.016618s22.021505 26.025415 25.024438 45.043988c3.002933 19.018573-1.000978 33.032258-12.011731 44.043011-11.010753 11.010753-25.024438 16.01564-43.042033 16.01564h-363.354838l106.103616 135.131965h264.258065c58.056696 0 103.100684-17.016618 138.134897-52.050831 35.034213-37.036168 49.047898-85.083089 41.040078-144.140762z"  horiz-adv-x="2001" />

    
    <glyph glyph-name="location" unicode="&#58884;" d="M512.103132 575.879021a106.221743 106.221743 0 1 0-75.507022-31.354611A106.221743 106.221743 0 0 0 512.103132 575.879021m0 63.989002a170.850635 170.850635 0 1 1 120.939214-49.911422A169.570855 169.570855 0 0 1 512.103132 639.868023zM805.172761 771.685367a407.609942 407.609942 0 0 1-586.139257 0 431.285873 431.285873 0 0 1 0-599.576948L512.103132-128l293.069629 300.108419a431.285873 431.285873 0 0 1 0 599.576948z m-44.152411-557.344207l-248.917218-255.956007-248.917217 255.956007a365.377201 365.377201 0 0 0 0 508.712565 346.82039 346.82039 0 0 0 497.834435 0 365.377201 365.377201 0 0 0 0-508.712565z"  horiz-adv-x="1024" />

    
    <glyph glyph-name="ziyuanleixing-huochepiao" unicode="&#58934;" d="M876.018 36.22c7.04 4.3 11.22 7.5 11.22 7.5 47.74 33.22 76.681 88.5 72.341 150.04l-34 495.01c-5.761 82.96-36.201 148.641-130.221 148.641h-165c0 54.8-39.18 58.59-91.699 58.59-8.42 0-17.221-0.101-26.221-0.101-9.01 0-17.82 0.101-26.23 0.101-52.49 0-91.7-3.79-91.7-58.59h-141.8c-93.36 0-148.33-65.681-154.13-148.641l-34.01-495.01c-5.39-56.54 28.16-123.4 87.77-159.08l-60.7-126.54c-6.06-12.96 0-28.101 13.53-33.92 3.55-1.46 7.28-2.22 10.97-2.22 1.29 0 2.52 0.319 3.81 0.52 1.28-0.1 2.45-0.5 3.77-0.5h776.579c2.301 0 4.32 0.5 6.48 0.84 2.04-0.439 4.061-0.84 6.221-0.84 3.66 0 7.359 0.74 10.92 2.22 13.52 5.8 19.6 20.94 13.52 33.9l-61.42 128.08zM310.487 179.779c-44 0-79 36.641-79.84 81.44 0 44.76 35.84 81.42 79.84 81.42s79.82-36.66 79.82-81.42c0.001-44.799-35.82-81.44-79.82-81.44z m403.21 0c-44 0-79.039 36.641-79.859 81.44 0 44.76 35.859 81.42 79.859 81.42 43.961 0 79.801-36.66 79.801-81.42 0-44.799-35.84-81.44-79.801-81.44z m79.801 321.901c0-22.8-17.9-41.27-40.061-41.27h-482.72c-22.19 0-40.07 18.47-40.07 41.27V665.69c0 22.79 17.88 41.29 40.07 41.29h482.72c22.2 0 40.061-18.5 40.061-41.29v-164.01zM538.678 875.52c61.9 0 71.26-8.58 71.26-38.109v-20.48H795.357c69.7 0 103.561-39.96 109.78-129.56l34.021-495.051c3.68-52.239-20.101-101.52-64.341-132.319-0.36-0.26-3.84-2.86-9.479-6.3l-15.801-9.66 8.021-16.681 61.34-127.899c0.521-1.08 0.56-2.2 0.14-3.28-0.279-0.78-1.1-2.22-3.02-3.04-1-0.42-2.04-0.64-2.859-0.64-0.701 0.039-1.381 0.239-2.061 0.38l-3.74 0.8-3.76-0.58-2.04-0.36c-0.521-0.08-1-0.2-1.24-0.239h-775.5c-1.08 0.199-2.16 0.34-3.29 0.439l-2.37 0.18-2.36-0.359-1.38-0.24c-0.78 0.08-1.56 0.28-2.16 0.52-2.1 0.9-2.92 2.341-3.21 3.141-0.42 1.08-0.37 2.18 0.06 3.1l60.69 126.54 8.07 16.841-16.02 9.6c-50 29.92-82.76 88.62-77.86 140.1l34.021 494.99c5.49 78.72 57.97 129.58 133.7 129.58h162.28V837.41c0 29.529 9.35 38.109 71.21 38.109l12.58-0.05 13.66-0.05 13.68 0.05 12.559 0.051m0 20.48c-8.439 0-17.221-0.101-26.24-0.101-9.01 0-17.8 0.101-26.24 0.101-52.48 0-91.69-3.79-91.69-58.59h-141.8c-93.36 0-148.35-65.681-154.13-148.641l-34.02-495.01c-5.39-56.54 28.17-123.4 87.77-159.08l-60.69-126.54c-6.07-12.96 0-28.101 13.53-33.92 3.55-1.46 7.28-2.22 10.97-2.22 1.29 0 2.51 0.319 3.8 0.52 1.28-0.1 2.44-0.5 3.78-0.5h776.6c2.28 0 4.3 0.5 6.46 0.84 2.04-0.439 4.12-0.84 6.221-0.84 3.66 0 7.379 0.74 10.92 2.22 13.539 5.8 19.6 20.94 13.539 33.9l-61.439 128.08c7.04 4.3 11.22 7.5 11.22 7.5 47.74 33.22 76.681 88.5 72.341 150.04l-34 495.01c-5.761 82.96-36.181 148.641-130.221 148.641H630.418c0 54.8-39.24 58.59-91.74 58.59zM310.478 342.64c44 0 79.83-36.66 79.83-81.42 0-44.8-35.83-81.44-79.83-81.44-43.99 0-79 36.641-79.83 81.44-0.001 44.759 35.839 81.42 79.83 81.42m0 20.48c-55.31 0-100.31-45.721-100.31-101.9 1.04-56.36 46.04-101.92 100.31-101.92 55.31 0 100.31 45.72 100.31 101.92 0 56.179-45 101.9-100.31 101.9zM713.697 342.64c43.961 0 79.801-36.66 79.801-81.42 0-44.8-35.84-81.44-79.801-81.44-44 0-79.039 36.641-79.859 81.44 0 44.759 35.859 81.42 79.859 81.42m0 20.48c-55.32 0-100.34-45.721-100.34-101.9 1.02-56.36 46.04-101.92 100.34-101.92 55.301 0 100.28 45.72 100.28 101.92 0.001 56.179-44.979 101.9-100.28 101.9zM753.438 706.979c22.2 0 40.061-18.5 40.061-41.29v-164.01c0-22.8-17.9-41.28-40.061-41.28h-482.72c-22.19 0-40.07 18.48-40.07 41.28v164.01c0 22.79 17.88 41.29 40.07 41.29h482.72m0 20.481h-482.72c-33.39 0-60.55-27.71-60.55-61.771v-164.01c0-34.05 27.16-61.76 60.55-61.76h482.72c33.38 0 60.54 27.71 60.54 61.76v164.01c0 34.061-27.161 61.771-60.54 61.771z"  horiz-adv-x="1024" />

    
    <glyph glyph-name="faxian" unicode="&#58963;" d="M511.274667 789.333333A404.608 404.608 0 0 1 106.666667 384.725333a404.608 404.608 0 0 1 404.608-404.608 404.608 404.608 0 0 1 404.608 404.608A404.608 404.608 0 0 1 511.274667 789.333333z m245.205333-649.813333A345.514667 345.514667 0 1 0 268.586667 628.906667 345.514667 345.514667 0 0 0 756.48 139.52zM327.808 196.266667l266.154667 102.4 102.4 266.154666-266.112-102.4-102.4-266.154666z m267.690667 267.648l-46.336-120.405334-120.405334-46.336 46.336 120.405334 120.405334 46.336z"  horiz-adv-x="1024" />

    
    <glyph glyph-name="shoucang" unicode="&#58951;" d="M773.45792-109.42976c-14.40256 0-30.592 4.13184-45.59872 11.63776l-214.29248 107.18208-215.61856-107.008c-13.65504-7.2704-29.2864-11.08992-45.22496-11.08992a96.16384 96.16384 0 0 0-57.5488 18.8416c-30.17728 22.64064-45.63968 61.8496-38.5024 97.5616l44.09856 228.77184L31.744 394.00448a104.05888 104.05888 0 0 0-26.28096 100.6592l0.33792 1.16224c12.288 36.82816 42.77248 62.63296 79.73376 67.584l234.83904 42.7008L425.7792 820.18816c16.93184 33.8944 51.36896 55.67488 87.78752 55.67488 37.9904 0 73.3184-22.59968 88.13056-56.28928l105.06752-213.4016 234.87488-41.0624A95.67232 95.67232 0 0 0 1019.904 496.73728a98.9696 98.9696 0 0 0-24.4736-101.00224l-0.57856-0.57856-168.5504-158.72 42.5984-229.18144c6.8608-36.64896-7.71584-73.67168-38.06208-96.7424a90.40896 90.40896 0 0 0-57.37984-19.9424z m-259.8144 199.55712l224.97792-112.51712c6.6048-3.328 14.21824-5.42208 19.4304-5.42208 8.01792 0 15.46752 2.46784 20.93568 7.02976l1.01888 0.83968c12.78464 9.59488 19.01568 24.83712 16.22016 39.76704l-45.27616 243.8912 179.07712 168.63744c10.98752 11.14624 14.75072 27.1104 9.87648 41.78944l-0.49152 1.54112a36.88448 36.88448 0 0 1-30.60736 26.68544l-1.01888 0.15872-247.78752 43.3152-111.5136 226.51392c-5.41696 12.65664-20.10624 21.84192-34.944 21.84192-14.57664 0-28.5184-9.12384-35.584-23.2192L367.16032 545.9456l-249.088-45.25056c-15.1296-1.89952-26.88-11.94496-32.31232-27.61728-3.85024-14.32064 0.71168-31.56992 11.2384-42.33216l179.28192-167.0656-47.0528-244.0192c-2.82624-14.11072 3.85536-30.35136 16.21504-39.62368 6.1952-4.6592 14.22336-7.22944 22.64576-7.22944 6.49216 0 12.71296 1.5104 18.07872 4.39808l0.77312 0.45056 226.70336 112.47104z"  horiz-adv-x="1024" />

    
    <glyph glyph-name="jipiao" unicode="&#58892;" d="M119.466667 384l153.6-110.933333L938.666667 661.333333l-4.266667 4.266667c-12.8 21.333333-34.133333 34.133333-59.733333 34.133333h-29.866667c-59.733333 0-119.466667-21.333333-166.4-59.733333l-76.8-59.733333-332.8 136.533333-29.866667-21.333333 264.533334-192-217.6-166.4-149.333334 55.466666-17.066666-8.533333z m238.933333 119.466667L132.266667 665.6c-4.266667 4.266667-8.533333 8.533333-8.533334 12.8-12.8 21.333333-4.266667 46.933333 12.8 59.733333l89.6 51.2c21.333333 12.8 51.2 17.066667 72.533334 4.266667l285.866666-115.2 38.4 29.866667c64 46.933333 140.8 72.533333 217.6 76.8h29.866667c55.466667 0 106.666667-29.866667 132.266667-76.8l4.266666-4.266667c21.333333-42.666667 8.533333-93.866667-29.866666-115.2L277.333333 179.2c-8.533333-4.266667-17.066667-4.266667-21.333333 0L17.066667 354.133333l-12.8 12.8c-8.533333 21.333333-4.266667 46.933333 17.066666 59.733334l72.533334 42.666666c21.333333 12.8 46.933333 17.066667 72.533333 4.266667l102.4-38.4 89.6 68.266667zM149.333333 42.666667h725.333334c12.8 0 21.333333-8.533333 21.333333-21.333334v-42.666666c0-12.8-8.533333-21.333333-21.333333-21.333334h-725.333334c-12.8 0-21.333333 8.533333-21.333333 21.333334v42.666666c0 12.8 8.533333 21.333333 21.333333 21.333334z"  horiz-adv-x="1024" />

    
    <glyph glyph-name="shoujichongzhi" unicode="&#59113;" d="M1001.984 419.328v-68.608c0-7.168-2.56-14.848-2.56-22.016-5.12-48.64-16.896-92.672-36.864-136.704-44.032-102.912-114.688-180.736-212.48-234.496-53.76-29.184-112.64-48.64-173.568-56.32-12.288-2.56-22.016-2.56-34.304-5.12h-56.32c-2.56 0-5.12 2.56-7.168 2.56-56.32 2.56-107.52 16.896-158.72 38.912-85.504 36.864-156.672 95.232-210.432 171.008-44.032 63.488-73.216 136.704-82.944 215.04-2.56 12.288-2.56 24.576-5.12 36.864V414.208c0 2.56 0 5.12 2.56 7.168 2.56 22.016 5.12 44.032 9.728 63.488 19.456 90.624 60.928 168.448 122.368 234.496 53.76 58.88 119.808 100.352 193.024 124.416 73.216 27.136 148.992 34.304 227.328 22.016 75.776-9.728 144.384-36.864 207.872-80.896 63.488-44.032 114.688-100.352 154.112-166.4 29.184-53.76 48.64-110.08 56.32-171.008 4.608-8.704 4.608-18.432 7.168-28.16z m-45.568-36.864c0 243.2-200.192 440.832-443.392 440.832-243.2 2.56-443.392-197.632-443.392-440.832 2.56-245.76 197.632-440.832 443.392-440.832 243.2 0 443.392 195.072 443.392 440.832zM637.952 423.936l-31.232 62.464h57.344c2.56 0 5.12-2.56 7.68-5.12 20.992-31.232 36.352-65.024 49.152-98.816 5.12-12.8 10.24-23.552 15.36-36.352h-62.464c-2.56 0-5.12 2.56-5.12 5.12-2.56 7.68-5.12 12.8-7.68 20.992 0 5.12-2.56 5.12-7.68 5.12-15.36-2.56-28.672-2.56-44.032-5.12v-158.208c0-18.432 10.24-28.672 28.672-28.672h38.912c20.992 0 31.232 10.24 31.232 33.792V240.128H762.88c-2.56-18.432 0-38.912-5.12-57.344-5.12-26.112-26.112-38.912-51.712-41.472-36.352-2.56-70.144-2.56-106.496 0-36.352 2.56-57.344 26.112-57.344 65.024v150.528c0 7.68-2.56 10.24-10.24 10.24-18.432 0-38.912-2.56-57.344-2.56-7.68 0-7.68-2.56-7.68-7.68v-54.784c-2.56-51.712-28.672-91.136-70.144-119.296-38.912-26.112-80.384-41.472-127.488-49.152v41.472c46.592 15.36 88.064 36.352 111.616 82.944 18.432 33.792 18.432 70.144 15.36 106.496h-85.504v31.232c-2.56 15.36 2.56 23.552 15.36 31.232 36.352 28.672 70.144 62.464 96.256 101.376 0 2.56 2.56 2.56 5.12 7.68H266.24v46.592h186.88c18.432 0 18.432 0 18.432 18.432v31.232h80.384v-46.592h207.872v-46.592h-236.544c-5.12 0-7.68 0-12.8-5.12-31.232-41.472-70.144-77.824-114.176-109.056-2.56 0-2.56-2.56-2.56-2.56v-2.56c80.384-6.144 160.768-3.584 244.224 4.096z"  horiz-adv-x="1024" />

    
    <glyph glyph-name="wode" unicode="&#59044;" d="M489.68 824.905c111.376 0 201.998-91.989 201.998-205.055S601.056 414.796 489.68 414.796 287.682 506.784 287.682 619.85 378.304 824.905 489.68 824.905zM596.01 275.98c148.758 0 269.778-122.735 269.803-273.606v-19.61c0-5.692-1.02-7.333-4.822-10.34-4.921-3.902-17.622-11.334-47.3-17.274-54.233-10.837-133.62-10.837-217.656-10.837H402.687c-85.85 0-166.902 0-220.167 10.812-28.533 5.79-40.464 12.95-45.062 16.727-2.983 2.436-4.524 4.027-4.524 10.912v19.61c0 150.87 121.02 273.606 269.753 273.606H596.01zM489.68 881.724c-142.296 0-258.07-117.49-258.07-261.849 0-144.358 115.774-261.849 258.07-261.849s258.071 117.466 258.071 261.85c0 144.383-115.775 261.848-258.07 261.848m106.33-548.95H402.661c-179.702 0-325.85-148.212-325.85-330.4v-19.61c0-95.27 143.811-95.27 325.85-95.27H596.01c174.881 0 325.876 0 325.876 95.27v19.61c0 182.164-146.173 330.4-325.876 330.4"  horiz-adv-x="1024" />

    
    <glyph glyph-name="jingdian" unicode="&#58976;" d="M899.4 542.7L620.5 770.4c-27.2 22.2-61.3 34.4-96.4 34.4h-21.5c-34.9 0-68.7-12-95.8-33.9L124.7 542.7H93.2c-17.2 0-31.2-14-31.2-31.2v-1.3C62 493 76 479 93.2 479h836.7c17.2 0 31.2 14 31.2 31.2v1.3c0 17.2-14 31.2-31.2 31.2h-30.5z m-2.8-514.8c0.1 0 0.1 17 0.1 33.5 0 17.2-14 31.2-31.2 31.2h-0.9c-17.2 0-31.2 13.9-31.2 31.1-0.2 61.8-0.5 199.9-0.7 261.7-0.1 17.2-14 31-31.2 31h-66c-17.2 0-31.2-13.9-31.2-31.1-0.1-61.8-0.1-199.6-0.1-261.5 0-17.2-13.9-31.1-31.1-31.2h-65.4c-17.2 0-31.1 13.9-31.1 31.1 0 61.8 0.1 199.6 0 261.5 0 17.2-14 31.1-31.2 31.1h-66.9c-17.2 0-31.2-13.9-31.2-31.1-0.1-61.8-0.1-199.6 0-261.4 0-17.2-13.9-31.2-31.2-31.2h-65.2c-17.2 0-31.2 13.9-31.2 31.2 0.1 61.9 0.1 199.5 0.2 261.3 0 17.2-13.8 31.1-31 31.1-20.4 0-46.9 0.1-67.3 0.1-17.2 0-31.1-13.9-31.1-31.1-0.1-61.8-0.1-199.5 0-261.4 0-17.2-14-31.2-31.2-31.2h-1.5c-17.2 0-31.2-13.9-31.2-31.2v-2.4c0-17.2-14-31.2-31.2-31.2h-2C76 27.9 62 14 62-3.3v-2.3c0-17.2 13.9-31.2 31.1-31.2 138.6-0.1 699.5 0 837.8 0 17.2 0 31.1 13.9 31.1 31.1v2.3c0 17.3-13.9 31.3-31.2 31.3h-34.2z m0 0"  horiz-adv-x="1024" />

    
    <glyph glyph-name="huochepiao" unicode="&#58895;" d="M896.2 41.5H0.1v-64h896.1c17.7 0 32 14.3 32 32 0 17.6-14.3 32-32 32z m0 0M951.1 361.5H640.2v128h150.7c-115.8 71.9-261.6 128-406.7 128H0.1v-512h896.6c70 0 127.4 13.4 127.4 127.9 0.1 33.1-26.9 79.3-73 128.1z m-695 0h-128v128h128v-128z m256.1 0h-128v128h128v-128z m0 0"  horiz-adv-x="1024" />

    
    <glyph glyph-name="lajitong" unicode="&#59088;" d="M329.6256 809.6h364.8V870.4h-364.8v-60.8zM25.6 687.9232h972.8512V748.7232H25.6v-60.8z m547.3024-547.3024h60.8V566.272h-60.8v-425.6512z m-182.4256 0h60.8V566.272h-60.8v-425.6512z m425.5744-121.472a60.8 60.8 0 0 0-60.8-60.8768H268.8a60.8 60.8 0 0 0-60.8 60.8256V627.1744H147.1488v-608.0256A121.5232 121.5232 0 0 1 268.7488-102.4H755.2a121.4976 121.4976 0 0 1 121.4976 121.6V627.2H815.872v-608.0512h0.1792z"  horiz-adv-x="1024" />

    
    <glyph glyph-name="saoma" unicode="&#58978;" d="M930.350825 896h-161.711145c-25.587206 0-46.568716-20.981509-46.568715-46.568716s20.981509-46.568716 46.568715-46.568715h115.142429c25.587206 0 46.568716-20.981509 46.568716-46.568716V640.127936c0-25.587206 20.981509-46.568716 46.568715-46.568716S1023.488256 614.54073 1023.488256 640.127936V802.862569C1023.488256 854.548726 982.036982 896 930.350825 896zM46.568716 593.55922c25.587206 0 46.568716 20.981509 46.568715 46.568716V756.805597c0 25.587206 20.981509 46.568716 46.568716 46.568716h115.142429c25.587206 0 46.568716 20.981509 46.568715 46.568715s-20.981509 46.056972-47.080459 46.056972H93.137431C41.451274 896 0 854.548726 0 802.862569V640.127936c0-25.587206 20.981509-46.568716 46.568716-46.568716zM255.36032-35.886057H139.706147c-25.587206 0-46.568716 20.981509-46.568716 46.568716v115.654173c0 25.075462-20.469765 46.056972-46.056971 46.056971H46.056972c-25.075462 0-46.056972-20.469765-46.056972-46.056971v-161.199401c0-51.174413 41.451274-93.137431 93.137431-93.137431h162.222889c25.075462 0 46.056972 20.469765 46.056971 46.056972s-20.981509 46.056972-46.056971 46.056971zM977.431284 172.393803h-1.535232c-25.075462 0-46.056972-20.469765-46.056972-46.056971V10.682659c0-25.587206-20.981509-46.568716-46.568715-46.568716H767.616192c-25.075462 0-46.056972-20.469765-46.056972-46.056971s20.469765-46.056972 46.056972-46.056972h162.222888c51.174413 0 93.137431 41.451274 93.137432 93.137431v160.687656c0.511744 26.098951-19.958021 46.568716-45.545228 46.568716zM46.568716 336.663668h930.350824c25.587206 0 46.568716 20.981509 46.568716 46.568716s-20.469765 46.568716-46.568716 46.568715H46.568716c-25.587206 0-46.568716-20.981509-46.568716-46.568715s20.981509-46.568716 46.568716-46.568716z"  horiz-adv-x="1024" />

    
    <glyph glyph-name="zan" unicode="&#58886;" d="M931.84 561.4592c-39.936 10.4448-133.8368 10.24-271.2576 13.9264 6.5536 30.0032 7.9872 57.0368 7.9872 104.96C668.672 795.0336 585.1136 896 511.1808 896c-52.224 0-95.232-42.7008-95.8464-95.1296-0.7168-64.3072-20.48-175.4112-127.7952-231.8336-7.8848-4.096-30.3104-15.1552-33.5872-16.6912l1.6384-1.4336a101.376 101.376 0 0 1-63.8976 25.6H95.8464A95.9488 95.9488 0 0 1 0 480.6656V-30.72c0-52.8384 43.008-95.8464 95.8464-95.8464h95.8464a94.72 94.72 0 0 1 85.2992 55.1936l1.4336-0.4096 7.68-2.048c0.512 0 0.8192-0.1024 1.4336-0.3072 18.432-4.608 53.8624-13.0048 129.536-30.4128 16.384-3.6864 101.9904-22.016 190.8736-22.016h174.6944c53.248 0 92.672 19.8656 114.3808 61.6448 21.2992 37.0688 125.5424 236.032 125.44 516.5056 0 40.3456-27.9552 91.8528-90.624 109.7728zM223.6416-30.72c0-17.6128-14.336-31.9488-31.9488-31.9488H95.8464a31.9488 31.9488 0 0 0-31.9488 31.9488V480.6656c0 17.6128 14.336 31.9488 31.9488 31.9488h95.8464c17.7152 0 31.9488-14.336 31.9488-31.9488V-30.72z m734.208 462.2336C944.5376 110.4896 840.704-34.816 840.704-34.816c-9.728-17.408-25.1904-27.8528-58.1632-27.8528H607.9488c-87.7568 0-174.7968 19.8656-177.0496 20.48-132.7104 30.5152-139.6736 32.8704-147.968 35.2256l4.608 469.504c0 48.5376 1.024 36.2496 0 35.6352 146.0224 60.416 190.464 193.024 191.6928 301.8752a32.0512 32.0512 0 0 0 31.9488 31.9488c33.792 0 93.4912-67.7888 93.4912-151.7568 0-75.776-3.072-88.7808-29.5936-167.7312 319.488 0 317.3376-4.608 345.4976-11.9808 35.0208-10.0352 37.888-38.912 37.888-48.9472 0-10.9568-0.2048-9.4208-0.6144-20.0704z"  horiz-adv-x="1024" />

    
    <glyph glyph-name="shui" unicode="&#59219;" d="M487.643429 896a487.862857 487.862857 0 0 0 487.570285-487.643429 487.862857 487.862857 0 0 0-487.570285-487.570285A487.862857 487.862857 0 0 0 0 408.356571 487.862857 487.862857 0 0 0 487.643429 896zM408.795429 362.861714a26.697143 26.697143 0 0 1 0.658285 34.084572c-2.194286 2.706286-21.065143 34.816-35.620571 62.317714h30.573714c11.702857 0 21.065143 10.898286 21.065143 24.137143 0 13.385143-9.435429 24.210286-21.065143 24.210286h-58.368V599.917714a359.862857 359.862857 0 0 1 58.075429 9.508572c11.264 3.218286 18.066286 16.384 15.213714 29.184-2.706286 12.726857-14.116571 20.845714-25.6 17.554285-0.438857-0.073143-43.812571-12.288-142.628571-12.288-11.702857 0-21.211429-10.898286-21.211429-24.137142 0-13.312 9.508571-24.137143 21.211429-24.137143 17.846857 0 34.742857 0.438857 52.736 1.316571V507.611429h-63.341715c-11.702857 0-21.065143-10.825143-21.065143-24.137143 0-13.312 9.435429-24.137143 21.065143-24.137143h48.932572c-15.872-30.573714-37.449143-75.117714-62.610286-112.64a26.550857 26.550857 0 0 1 3.803429-33.792 19.748571 19.748571 0 0 1 29.622857 4.388571c16.091429 24.064 30.500571 46.738286 43.593143 69.193143V193.828571c0-13.312 9.508571-24.137143 21.138285-24.137142 11.702857 0 21.065143 10.825143 21.065143 24.137142V410.697143c16.091429-26.916571 32.694857-46.811429 32.768-47.030857a19.894857 19.894857 0 0 1 29.988572-0.731429z m305.590857-57.782857a22.235429 22.235429 0 0 1-21.723429-22.674286v-44.617142c0-7.314286-11.337143-16.237714-15.798857-16.237715h-36.498286a20.187429 20.187429 0 0 0-13.824 5.12c-2.486857 2.633143-3.657143 6.656-3.584 12.288 0.365714 25.161143 0.292571 92.745143 0.292572 121.490286v2.194286h27.867428c29.476571 0 53.394286 23.552 53.394286 52.662857v103.131428a53.101714 53.101714 0 0 1-53.394286 52.662858h-21.504c13.238857 17.846857 32.768 47.250286 40.886857 74.166857a24.283429 24.283429 0 0 1-15.140571 30.208 23.259429 23.259429 0 0 1-29.037714-15.725715c-7.753143-25.892571-34.084571-60.928-43.52-72.265142a24.064 24.064 0 0 1-5.412572-16.384h-41.837714c1.316571 0.877714 2.706286 1.462857 3.803429 2.633142a24.868571 24.868571 0 0 1 0.585142 34.084572 276.260571 276.260571 0 0 0-38.180571 55.222857 23.113143 23.113143 0 0 1-20.699429 13.312c-3.657143 0-7.314286-0.950857-10.532571-2.706286a24.649143 24.649143 0 0 1-10.166857-32.402285c16.603429-34.230857 44.909714-65.462857 46.08-66.852572 1.316571-1.389714 3.072-2.194286 4.608-3.291428H490.788571a53.101714 53.101714 0 0 1-53.467428-52.662858v-103.131428c0-29.110857 23.990857-52.662857 53.394286-52.662857h9.362285c-1.389714-36.571429-13.897143-115.858286-94.573714-139.190857a24.356571 24.356571 0 0 1-16.091429-29.622858 23.332571 23.332571 0 0 1 22.235429-17.773714 22.454857 22.454857 0 0 1 6.144 0.877714c92.16 26.624 126.976 112.713143 128.877714 185.636572h33.28v-2.048c0-28.818286 0-96.402286-0.365714-120.905143a61.732571 61.732571 0 0 1 16.018286-44.617143 62.171429 62.171429 0 0 1 44.836571-18.651428h36.571429c26.770286 0 59.245714 27.428571 59.245714 61.44v44.617142c0 12.434286-9.801143 22.674286-21.796571 22.674286zM490.788571 410.843429c-4.608 0-7.094857 2.925714-7.094857 4.388571v103.131429c0 1.462857 2.486857 4.388571 7.094857 4.388571h160.402286c4.608 0 7.168-2.925714 7.168-4.388571v-103.131429c0-1.462857-2.56-4.388571-7.168-4.388571H490.715429z"  horiz-adv-x="1024" />

    
    <glyph glyph-name="woyaohezuo" unicode="&#58969;" d="M1114.697143 565.394286L807.497143 869.668571C769.462857 904.777143 710.948571 904.777143 672.914286 869.668571l-131.657143-131.657142L468.114286 811.154286c-38.034286 38.034286-102.4 38.034286-143.36 0L29.257143 518.582857c-38.034286-38.034286-38.034286-102.4 0-140.434286L509.074286-98.742857c38.034286-38.034286 102.4-38.034286 143.36 0l295.497143 292.571428c26.331429 26.331429 35.108571 67.291429 23.405714 102.4 2.925714 2.925714 5.851429 2.925714 8.777143 5.851429l131.657143 131.657143c38.034286 38.034286 38.034286 96.548571 2.925714 131.657143z m-216.502857-324.754286l-40.96-40.96-198.948572 196.022857c-8.777143 8.777143-26.331429 8.777143-35.108571 0-8.777143-8.777143-8.777143-26.331429 0-35.108571l198.948571-196.022857-55.588571-55.588572-198.948572 198.948572c-5.851429 5.851429-14.628571 8.777143-23.405714 5.851428-8.777143-2.925714-14.628571-8.777143-17.554286-17.554286-2.925714-8.777143 0-17.554286 5.851429-23.405714L731.428571 76.8l-58.514285-58.514286-198.948572 196.022857c-5.851429 8.777143-14.628571 8.777143-23.405714 8.777143-8.777143-2.925714-14.628571-8.777143-17.554286-17.554285-2.925714-8.777143 0-17.554286 5.851429-23.405715l198.948571-196.022857-35.108571-35.108571c-5.851429-5.851429-14.628571-8.777143-23.405714-8.777143-8.777143 0-17.554286 2.925714-23.405715 8.777143L76.068571 422.034286c-5.851429 5.851429-8.777143 14.628571-8.777142 23.405714 0 8.777143 2.925714 17.554286 8.777142 23.405714l295.497143 292.571429c5.851429 5.851429 14.628571 8.777143 23.405715 8.777143 8.777143 0 17.554286-2.925714 23.405714-8.777143l479.817143-473.965714c14.628571-11.702857 14.628571-32.182857 0-46.811429m166.765714 239.908571l-131.657143-131.657142L588.068571 688.274286l131.657143 131.657143c5.851429 5.851429 11.702857 8.777143 20.48 8.777142 5.851429 0 14.628571-2.925714 20.48-8.777142l304.274286-301.348572c11.702857-8.777143 11.702857-26.331429 0-38.034286z"  horiz-adv-x="1141" />

    
    <glyph glyph-name="xiaoxi" unicode="&#58887;" d="M830.446 768.192H177.489c-51.88 0-89.538-40.113-89.538-95.37V193.72c0-53.415 35.917-89.332 89.538-89.332h191.354l114.505-111.231c6.14-6.14 14.224-9.21 22.308-9.21 8.186 0 16.27 3.172 22.512 9.312l112.356 111.026h189.922c53.415 0 89.333 35.918 89.333 89.333V672.822c0 55.257-37.555 95.37-89.333 95.37z m25.889-574.472c0-18.419-7.47-25.889-25.89-25.889H628.04a31.794 31.794 0 0 1-23.228-9.312l-99.361-97.928-101.305 98.133c-6.447 6.344-14.838 9.414-23.229 9.107H177.49c-18.522 0-26.094 7.47-26.094 25.89v479.1c0 9.62 2.558 31.927 26.094 31.927h652.957c23.33 0 25.889-22.307 25.889-31.926V193.72zM255.975 439.513a55 55 0 1 1 112.56 0 55 55 0 1 1-112.56 0zM456.538 439.513a55 55 0 1 1 112.561 0 55 55 0 1 1-112.561 0zM655.772 440.23a55 55 0 1 1 112.56 0 55 55 0 1 1-112.56 0z"  horiz-adv-x="1024" />

    
    <glyph glyph-name="dd" unicode="&#59192;" d="M268.02606186-59.64232617000005a117.44211993 117.44211993 0 0 0-117.28124029 117.2812403L150.74482157 667.69441921A117.44211993 117.44211993 0 0 0 268.02606186 784.97565951l488.02831609 0a117.44211993 117.44211993 0 0 0 117.2812403-117.2812403l0-609.97506528a117.44211993 117.44211993 0 0 0-117.2812403-117.28124029z m0 792.97562884a65.79976308 65.79976308 0 0 1-65.71932328-65.71932326l0-609.97506528a65.79976308 65.79976308 0 0 1 65.71932328-65.71932326l488.02831609 0a65.79976308 65.79976308 0 0 1 65.71932328 65.71932326L821.77370123 667.69441921a65.79976308 65.79976308 0 0 1-65.71932328 65.71932326zM318.94446042 336.84548826a25.82117841 25.82117841 0 1 0 0 51.56191701l386.11107916 0a25.82117841 25.82117841 0 1 0 0-51.56191701zM318.94446042 214.89873909000005a25.82117841 25.82117841 0 1 0 0 51.24015778l263.44037172 0a25.82117841 25.82117841 0 1 0 0-51.64235683zM318.94446042 459.19443646a25.82117841 25.82117841 0 1 0 0 51.64235684l386.11107916 0a25.82117841 25.82117841 0 1 0 0-51.64235684z"  horiz-adv-x="1024" />

    
    <glyph glyph-name="hao" unicode="&#58888;" d="M927.878 428.382h-377.118v365.861c0 16.8859-16.8859 39.4004-39.4004 39.4004-22.5145 0-39.4004-22.5145-39.4004-45.029v-365.861H106.097c-22.5145 5.62863-45.029-16.8859-45.029-39.4004s22.5145-39.4004 39.4004-39.4004h365.861v-365.861c5.62863-22.5145 22.5145-45.029 45.029-45.029s39.4004 22.5145 39.4004 39.4004v371.49h371.49c22.5145 0 39.4004 22.5145 39.4004 39.4004s-11.2573 45.029-33.7718 45.029Z"  horiz-adv-x="1027" />

    
    <glyph glyph-name="fukuanma" unicode="&#58917;" d="M228.889 534.636h23.966c6.612 0 11.983 5.372 11.983 11.984V810.256c0 6.612-5.371 11.984-11.983 11.984H228.89c-6.612 0-11.983-5.372-11.983-11.984V546.62c0-6.612 5.37-11.984 11.983-11.984z m131.819 0h71.9c6.613 0 11.984 5.372 11.984 11.984V810.256c0 6.612-5.371 11.984-11.984 11.984h-71.9c-6.612 0-11.984-5.372-11.984-11.984V546.62c0-6.612 5.371-11.984 11.984-11.984z m407.437 0h23.968c6.61 0 11.982 5.372 11.982 11.984V810.256c0 6.612-5.371 11.984-11.982 11.984h-23.968c-6.611 0-11.983-5.372-11.983-11.984V546.62c0-6.612 5.372-11.984 11.983-11.984z m-95.867-143.801v-215.703c0-19.848 16.114-35.95 35.95-35.95s35.951 16.1 35.951 35.95V390.835c0 19.848-16.114 35.95-35.95 35.95s-35.951-16.102-35.951-35.95z m203.719 143.8h59.918c6.612 0 11.983 5.373 11.983 11.985V810.256c0 6.612-5.371 11.984-11.983 11.984h-59.918c-6.61 0-11.983-5.372-11.983-11.984V546.62c0-6.612 5.372-11.984 11.983-11.984zM696.245 546.62V810.256c0 6.612-5.373 11.984-11.983 11.984H612.36c-6.611 0-11.983-5.372-11.983-11.984V546.62c0-6.612 5.372-11.984 11.983-11.984h71.902c6.61 0 11.983 5.372 11.983 11.984zM519.149 426.785H82.431c-11.773 0-21.31-9.537-21.31-21.31v-436.718c0-11.772 9.537-21.31 21.31-21.31h436.718c11.772 0 21.31 9.538 21.31 21.31V405.475c0 11.773-9.538 21.31-21.31 21.31z m-50.59-407.438H133.02V354.885h335.537v-335.538zM923.93 235.049c-19.848 0-35.95-16.102-35.95-35.951v-179.751H708.229c-19.837 0-35.951-16.103-35.951-35.95s16.114-35.952 35.95-35.952h215.703c19.848 0 35.951 16.103 35.951 35.951V199.098c0 19.849-16.104 35.95-35.95 35.95zM85.087 534.636h59.917c6.613 0 11.984 5.372 11.984 11.984V810.256c0 6.612-5.371 11.984-11.984 11.984H85.087c-6.611 0-11.984-5.372-11.984-11.984V546.62c0-6.612 5.372-11.984 11.984-11.984z m838.844-107.85c-19.848 0-35.95-16.103-35.95-35.951V342.9c0-19.848 16.102-35.95 35.95-35.95s35.951 16.102 35.951 35.95v47.934c0 19.848-16.104 35.95-35.95 35.95zM252.856 115.213h95.868c13.236 0 23.967 10.744 23.967 23.968V235.05c0 13.224-10.732 23.967-23.967 23.967h-95.868c-13.236 0-23.966-10.743-23.966-23.967v-95.868c-0.001-13.224 10.73-23.968 23.966-23.968z m269.628 419.422c9.923 0 17.975 5.372 17.975 11.984V810.256c0 6.612-8.052 11.984-17.975 11.984s-17.974-5.372-17.974-11.984V546.62c0-6.612 8.051-11.984 17.974-11.984z"  horiz-adv-x="1024" />

    
    <glyph glyph-name="fapiao" unicode="&#58898;" d="M927.722414-122.005993a34.05751 34.05751 0 0 0-38.253126 0L793.586434-51.389356c-26.810194-15.643551-74.893516-44.602811-119.930141-70.616637-11.290411-7.398588-26.292618-7.398588-41.324829 0-45.035374 26.015077-97.445584 58.891163-120.412712 70.616637-26.781439-15.643551-82.419623-45.265408-133.677163-73.073249-7.88741-3.458009-15.77357-3.458009-23.660981-3.458008-7.882409 0-15.768569 3.458009-19.685395 6.941021-47.290706 27.80659-107.230773 53.946685-130.194151 69.590236-19.177821-11.725475-59.89131-46.984411-97.396827-70.694149-11.251655-7.88866-26.233859-7.88866-37.485514 0C58.577068-114.173591 51.050961-102.315597 51.050961-86.517023V856.902999C51.050961 880.358949 66.385716 896 89.352845 896h819.245506c22.967128 0 38.253127-15.641051 38.253127-39.097001v-943.498784c0-15.77357-7.657376-27.524049-19.129064-35.410208zM500.369553 665.542351H241.977795c-22.430799 0-37.354245-15.285998-37.354245-38.253127s14.923445-38.301884 37.354245-38.301884h258.368005c22.429549 0 37.354245 15.334756 37.354244 38.301884s-14.924695 38.253127-37.330491 38.253127zM652.868235 460.735975H243.130464c-23.094647 0-38.506914-15.333505-38.506914-38.300634 0-22.968379 15.412267-38.308135 38.506914-38.308135h409.712767c23.118401 0 38.530668 15.339756 38.530668 38.308135 0.025004 22.967128-15.387263 38.300634-38.505664 38.300634z m0-204.752618H243.130464c-23.094647 0-38.506914-15.339756-38.506914-38.306885 0-22.962128 15.412267-38.300634 38.506914-38.300634h409.712767c23.118401 0 38.530668 15.338506 38.530668 38.300634 0.025004 22.992132-15.387263 38.306885-38.505664 38.306885z m0 0"  horiz-adv-x="1024" />

    
    <glyph glyph-name="kefu" unicode="&#58894;" d="M976.5888 205.4144V427.4176c0 61.44 50.7904 110.3872 108.544 110.3872 94.5152 0 143.5648-79.6672 143.6672-180.224v-80.6912c0-100.5568-49.2544-184.32-143.6672-184.32-57.856 0.2048-108.544 51.2-108.544 112.8448z m75.1616 220.7744v-222.0032c0-16.384 12.5952-29.696 27.9552-29.696 52.224 0 72.2944 46.8992 72.2944 102.4v80.6912c0 55.3984-20.1728 98.304-72.2944 98.4064-15.36 0-27.8528-13.312-27.9552-29.696z m-880.64-331.5712C76.8 94.6176 35.328 178.176 35.328 278.528V359.424c0 100.5568 41.5744 180.5312 135.9872 180.5312 57.7536 0 125.2352-50.176 125.2352-111.616v-222.1056c0-61.5424-67.584-111.616-125.2352-111.616zM95.1296 354.304v-80.6912c0-55.3984 24.064-97.28 76.1856-97.28 7.3728 0 14.5408 3.072 19.7632 8.704a30.72 30.72 0 0 1 8.192 20.992V428.2368c0 16.384-12.5952 29.696-27.9552 29.696-52.1216 0-76.0832-48.128-76.1856-103.424zM258.048 403.2512a39.2192 39.2192 0 0 0-38.6048 39.8336v41.7792C219.4432 711.68 392.9088 896 606.1056 896h53.0432c217.6-0.3072 393.9328-182.4768 394.1376-407.3472v-41.7792a39.2192 39.2192 0 0 0-38.6048-39.936 39.2192 39.2192 0 0 0-38.5024 39.936v41.7792C975.872 669.4912 834.1504 816.128 659.1488 816.3328h-53.1456c-170.7008 0-309.5552-148.6848-309.5552-331.4688v-41.7792a40.3456 40.3456 0 0 0-11.264-28.2624 37.7856 37.7856 0 0 0-27.2384-11.5712zM745.7792-128h-13.0048a39.2192 39.2192 0 0 0-38.5024 39.8336c0 22.016 17.2032 39.936 38.5024 39.936h13.0048c126.976 0 230.2976 132.608 230.2976 295.8336v27.4432c0 22.016 17.2032 39.936 38.5024 39.936s38.6048-17.92 38.6048-39.936v-27.4432C1053.2864 40.448 915.3536-128 745.8816-128zM658.3296-61.2352c0-36.864 29.3888-66.7648 65.7408-66.7648a66.3552 66.3552 0 0 1 65.8432 66.7648 66.3552 66.3552 0 0 1-65.8432 66.7648 66.3552 66.3552 0 0 1-65.7408-66.7648z"  horiz-adv-x="1228" />

    
    <glyph glyph-name="meituan1" unicode="&#59797;" d="M819.2 504.32h-204.8c-7.68 0-10.24-2.56-10.24-10.24v-222.72c0-10.24 2.56-12.8 12.8-12.8h197.12c12.8 0 17.92 5.12 17.92 15.36v217.6c0 12.8-2.56 12.8-12.8 12.8z m-17.92-84.48h-5.12c-20.48 0-17.92 2.56-17.92-17.92V307.2c0-25.6-7.68-35.84-33.28-38.4-12.8-2.56-28.16 0-38.4 0-5.12 0-7.68 2.56-7.68 7.68V281.6c0 23.04 0 23.04 20.48 23.04 23.04 2.56 25.6 5.12 25.6 25.6v71.68c-30.72-46.08-69.12-74.24-112.64-102.4v38.4c0 7.68 5.12 7.68 10.24 10.24 28.16 20.48 53.76 40.96 74.24 71.68h-84.48c-10.24 0-15.36 2.56-15.36 12.8 2.56 23.04 0 23.04 23.04 23.04h92.16c10.24 0 12.8 2.56 10.24 10.24v10.24c0 20.48-5.12 17.92 17.92 17.92 12.8 0 17.92-2.56 15.36-15.36-2.56-5.12 0-10.24 0-17.92 0-5.12 2.56-7.68 7.68-7.68 5.12 0 10.24-2.56 17.92 0 15.36 2.56 17.92-5.12 17.92-17.92 0-12.8-2.56-17.92-17.92-15.36z m0 0M514.56 890.88C232.96 890.88 5.12 663.04 5.12 381.44S232.96-128 514.56-128 1024 99.84 1024 381.44 796.16 890.88 514.56 890.88z m-350.72-512c2.56 23.04-2.56 20.48 20.48 20.48h112.64c7.68 0 15.36-2.56 15.36 10.24s-5.12 10.24-15.36 10.24H199.68c-10.24 0-15.36 2.56-12.8 12.8v10.24c-2.56 7.68 2.56 12.8 10.24 10.24h97.28c7.68 0 12.8 0 12.8 10.24s-5.12 12.8-12.8 10.24H186.88c-20.48 0-17.92-2.56-17.92 17.92 0 17.92 2.56 20.48 15.36 20.48 20.48-2.56 43.52 0 66.56 0-10.24 15.36-17.92 23.04-23.04 38.4h33.28c2.56 0 5.12-2.56 7.68-5.12 2.56-2.56 2.56-5.12 2.56-5.12 12.8-20.48 28.16-35.84 53.76-30.72h7.68c25.6-5.12 40.96 7.68 51.2 28.16 5.12 10.24 12.8 15.36 23.04 12.8 7.68-2.56 15.36 0 23.04 0-5.12-15.36-12.8-25.6-23.04-38.4h69.12c10.24 0 12.8-2.56 12.8-12.8 0-20.48 0-20.48-20.48-20.48H358.4c-10.24 0-10.24-2.56-10.24-12.8 0-7.68 2.56-10.24 10.24-10.24h97.28c10.24 0 15.36-2.56 12.8-12.8v-7.68c2.56-15.36-5.12-15.36-15.36-15.36-30.72 2.56-58.88 0-89.6 0-7.68 0-17.92 5.12-17.92-10.24 0-15.36 7.68-10.24 17.92-10.24h115.2c10.24 0 15.36-2.56 15.36-12.8-2.56-20.48 0-20.48-20.48-20.48H176.64c-10.24 0-12.8 2.56-12.8 12.8z m309.76-163.84c-58.88 5.12-104.96 28.16-143.36 74.24-38.4-56.32-97.28-66.56-158.72-74.24-7.68-2.56-10.24 2.56-10.24 10.24 0 7.68-2.56 17.92 2.56 25.6 5.12 7.68 15.36 2.56 23.04 5.12 23.04 0 43.52 7.68 64 15.36 17.92 7.68 30.72 20.48 40.96 35.84H174.08c-7.68 0-10.24 2.56-10.24 10.24-2.56 25.6-2.56 25.6 23.04 25.6h102.4c10.24 0 15.36 2.56 15.36 12.8 0 7.68 2.56 10.24 10.24 7.68h17.92c10.24 2.56 17.92 0 15.36-15.36-2.56-10.24 7.68-7.68 10.24-7.68h117.76c10.24 0 17.92-2.56 15.36-15.36v-10.24c2.56-7.68-2.56-10.24-10.24-10.24h-117.76c23.04-33.28 56.32-43.52 89.6-51.2 10.24-2.56 23.04-5.12 33.28-5.12 7.68 0 10.24-5.12 10.24-10.24 0-25.6 0-25.6-23.04-23.04z m394.24 30.72c0-20.48-5.12-28.16-28.16-28.16H581.12c-10.24 0-12.8 2.56-12.8 12.8V524.8c0 10.24 2.56 15.36 12.8 15.36h273.92c10.24 0 12.8-5.12 12.8-15.36v-279.04z m0 0"  horiz-adv-x="1024" />

    
    <glyph glyph-name="GroupCopy" unicode="&#58900;" d="M0 896m163.84 0l696.32 0q163.84 0 163.84-163.84l0-696.32q0-163.84-163.84-163.84l-696.32 0q-163.84 0-163.84 163.84l0 696.32q0 163.84 163.84 163.84ZM676.53632 484.29056A204.92288 204.92288 0 0 1 497.54112 588.8a205.53728 205.53728 0 0 1-201.23648-163.90144 125.952 125.952 0 0 1-90.9312-121.0368c0-62.6688 46.57152-115.28192 106.9056-124.55936v-1.4336h352.8704c84.62336 0 153.45664 68.8128 153.45664 153.43616 0 80.77312-62.75072 147.12832-142.06976 152.9856z m-295.03488-115.67104h202.56768a17.6128 17.6128 0 0 0 0-35.2256h-202.5472a17.6128 17.6128 0 1 0 0 35.2256z m211.37408-114.4832H381.5424a17.6128 17.6128 0 0 0 0 35.2256h211.3536a17.6128 17.6128 0 0 0 0-35.2256z m96.8704 0h-44.032a17.6128 17.6128 0 0 0 0 35.2256h44.032a17.6128 17.6128 0 0 0 0-35.2256z m0 79.2576h-44.032a17.6128 17.6128 0 0 0 0 35.2256h44.032a17.6128 17.6128 0 0 0 0-35.2256z"  horiz-adv-x="1024" />

    
    <glyph glyph-name="yaoqingyouli" unicode="&#58949;" d="M967.395283 387.137988v-450.745739a64.392249 64.392249 0 0 0-64.392248-64.392249H548.996823v513.928744z m-483.697641-513.928744H130.598363a64.392249 64.392249 0 0 0-64.392248 64.392249V387.137988H483.697642zM248.499663 792.537074c-90.693308-52.90443 122.738277-162.945643 192.269813-142.690804 0.302311 0.302311-81.321666 208.292297-192.269813 142.690804z m-181.386615-341.006837a64.392249 64.392249 0 0 0-65.299182 64.392249v64.392248A64.392249 64.392249 0 0 0 66.206115 645.009294H241.848821C133.016851 709.703853 60.462205 810.071114 162.643332 870.231008c169.898797 100.669572 272.079923-118.808233 311.380357-225.524025H483.697642v-193.176746H66.206115z m716.477132 338.89066c-116.087434 65.903804-199.827588-143.597737-199.827589-143.597737 72.856957-20.254839 292.939384 90.390997 199.827589 143.597737zM967.395283 451.530237H548.996823V644.706983H513.928744C555.043044 754.748196 665.084257 970.295958 838.913097 869.928697c129.086808-73.76389 54.718296-165.06182-60.462205-225.221714H967.395283a64.392249 64.392249 0 0 0 64.392249-64.392249v-64.392248A64.392249 64.392249 0 0 0 967.395283 451.530237z m-967.395283-12.394752zM0 654.078624z m0 211.617719z"  horiz-adv-x="1033" />

    
    <glyph glyph-name="maoyandianying" unicode="&#58977;" d="M791.523 203.367a264.757 264.757 0 0 1 16.47 25.585c33.067-4.573 66.038-11.422 96.758-20.964a439.884 439.884 0 0 0 16.9-5.62 446.583 446.583 0 0 0-24.066-46.602c-30.61 22.47-66.002 38.343-106.062 47.6z m-19.528-23.927c42.748-7.981 79.636-23.605 110.833-46.896C802.235 13.923 666.218-64 512-64c-154.143 0-290.104 77.848-370.711 196.372 30.313 22.355 65.955 37.534 107.077 45.56 60.352-65.292 154.873-107.331 261.123-107.331 107.065 0 202.22 42.686 262.506 108.839z m48.785 75.54a241.214 241.214 0 0 1 9.933 28.394c43.939 3.32 82.936 1.93 116.976-4.116a444.507 444.507 0 0 0-15.623-51.328 465.033 465.033 0 0 1-19.22 6.422c-29.461 9.152-60.667 15.9-92.066 20.629z m15.994 56.432a234.17 234.17 0 0 1 2.688 35.422c0 49.095-15.3 95.199-42.125 135.152-4.277 87.032-13.392 144.503-27.345 172.412-1.736 3.472-4.954 9.628-16.504 7.351-28.263-5.572-67.64-25.402-118.131-59.49-38.788 13.41-81.296 20.808-125.868 20.808-44.95 0-87.8-7.524-126.852-21.149-50.019 33.682-89.068 53.291-117.147 58.827-11.55 2.277-14.769-3.88-16.504-7.351-13.895-27.794-22.992-84.903-27.292-171.329-26.858-39.971-42.178-86.103-42.178-135.23 0-12.288 0.958-24.387 2.815-36.25-41.147 2.44-78.309 0.795-111.496-4.973C66.343 331.065 64 357.259 64 384 64 631.424 264.576 832 512 832s448-200.576 448-448c0-26.52-2.304-52.503-6.724-77.759-34.493 6.21-73.322 7.92-116.502 5.171z m-608.1-109.709c-38.428-9.227-72.51-24.608-102.147-46.126a446.593 446.593 0 0 0-24.065 46.536 443.718 443.718 0 0 0 14.778 4.87c30.02 9.325 62.188 16.077 94.496 20.648a265.632 265.632 0 0 1 16.938-25.928z m-29.893 51.903c-30.578-4.709-60.935-11.343-89.635-20.258a468.628 468.628 0 0 1-17.117-5.673 444.504 444.504 0 0 0-15.567 50.954c32.8 5.603 70.148 6.933 112.029 3.946a241.548 241.548 0 0 1 10.29-28.969z m204.222 4.442c-4.546-18.711-0.371-45.29 28.173-53.84 19.439-5.82 35.41-2.513 50.609 9.118 9.902 7.577 17.34 17.748 20.312 26.245-11.778 3.004-20.232 11.217-20.232 20.877 0 12.205 13.492 22.1 30.135 22.1s30.135-9.895 30.135-22.1c0-9.697-8.518-17.935-20.366-20.911 2.877-8.574 10.392-18.942 20.446-26.636 15.199-11.631 31.17-14.939 50.609-9.117 28.776 8.618 32.785 35.561 28.06 54.293-47.069 12.463-81.763 55.347-81.763 106.336 0 60.746 49.245 109.99 109.991 109.99s109.991-49.244 109.991-109.99c0-60.747-49.245-109.991-109.99-109.991-0.26 0-0.52 0-0.778 0.002 3.01-30.384-19.037-59.874-48.951-68.662-25.553-7.506-48.786-3.454-68.904 11.942-4.298 3.289-12.035 9.79-18.615 20.231-6.52-10.193-14.106-16.562-18.345-19.806-20.118-15.396-43.351-19.448-68.904-11.942-29.774 8.747-51.755 38.003-48.991 68.237-0.246-0.002-0.491-0.002-0.737-0.002-60.746 0-109.991 49.244-109.991 109.99 0 60.747 49.245 109.992 109.99 109.992 60.747 0 109.992-49.245 109.992-109.991 0-51.03-34.75-93.942-81.876-106.365z m-29.8 170.15c-9.888 0-17.903-8.016-17.903-17.903v-93.774c0-9.887 8.015-17.902 17.902-17.902h2.367c9.887 0 17.902 8.015 17.902 17.902v93.774c0 9.887-8.015 17.902-17.902 17.902h-2.367z m275.228 0c-9.887 0-17.902-8.016-17.902-17.903v-93.774c0-9.887 8.015-17.902 17.902-17.902h2.367c9.887 0 17.902 8.015 17.902 17.902v93.774c0 9.887-8.015 17.902-17.902 17.902h-2.367z"  horiz-adv-x="1024" />

    
    <glyph glyph-name="jiudianzhusu_icon" unicode="&#58889;" d="M1080.805069-33.400324h-19.915722V368.233387c0 56.427877-46.470016 102.897893-102.897893 102.897893h-38.171799V793.102107c0 56.427877-46.470016 102.897893-102.897893 102.897893H242.685133c-56.427877 0-102.897893-46.470016-102.897893-102.897893V-31.740681h-24.894651c-26.554295 0-48.12966-21.575365-48.12966-48.129659 0-26.554295 21.575365-48.12966 48.12966-48.12966h965.91248c26.554295 0 48.12966 21.575365 48.129659 48.12966 0 24.894652-21.575365 46.470016-48.129659 46.470016zM611.125976 701.821718c0 16.596434 13.277147 29.873582 29.873582 29.873582h109.536467c16.596434 0 29.873582-13.277147 29.873582-29.873582v-109.536467c0-16.596434-13.277147-29.873582-29.873582-29.873582h-109.536467c-16.596434 0-29.873582 13.277147-29.873582 29.873582V701.821718z m-164.3047-637.303079c0-16.596434-13.277147-29.873582-29.873582-29.873582H309.070871c-16.596434 0-29.873582 13.277147-29.873582 29.873582v109.536466c0 16.596434 13.277147 29.873582 29.873582 29.873582h109.536467c16.596434 0 29.873582-13.277147 29.873581-29.873582v-109.536466z m0 263.883306c0-16.596434-13.277147-29.873582-29.873582-29.873582H309.070871c-16.596434 0-29.873582 13.277147-29.873582 29.873582v109.536467c0 16.596434 13.277147 29.873582 29.873582 29.873582h109.536467c16.596434 0 29.873582-13.277147 29.873581-29.873582v-109.536467z m0 263.883306c0-16.596434-13.277147-29.873582-29.873582-29.873582H309.070871c-16.596434 0-29.873582 13.277147-29.873582 29.873582V701.821718c0 16.596434 13.277147 29.873582 29.873582 29.873582h109.536467c16.596434 0 29.873582-13.277147 29.873581-29.873582v-109.536467z m521.128039-625.685575h-119.494328V174.055105c0 16.596434-13.277147 29.873582-29.873581 29.873582h-59.747164c-16.596434 0-29.873582-13.277147-29.873582-29.873582v-207.455429h-119.494327V378.191248h356.823338v-411.591572z"  horiz-adv-x="1489" />

    
    <glyph glyph-name="shang" unicode="&#58890;" d="M516.36906667-99.26731852c-267.60533333 0-485.45185185 217.84651852-485.45185185 485.45185185s217.84651852 485.45185185 485.45185185 485.45185184 485.45185185-217.84651852 485.45185185-485.45185184-217.84651852-485.45185185-485.45185185-485.45185185z m0 913.74174815c-236.17232592 0-428.2898963-192.11757037-428.2898963-428.2898963S280.19674075-42.10536296999999 516.36906667-42.105362979999995s428.2898963 192.11757037 428.2898963 428.28989631-192.11757037 428.2898963-428.2898963 428.2898963zM516.36906667 100.61748147000003c-15.77718521 0-28.5202963 12.7431111-28.5202963 28.52029632L487.84877037 642.74583703c0 15.77718521 12.7431111 28.5202963 28.5202963 28.5202963s28.5202963-12.7431111 28.5202963-28.5202963L544.88936297 129.13777776999996c0-15.77718521-12.7431111-28.5202963-28.5202963-28.5202963zM687.61220741 443.34648888c-7.28177778 0-14.56355555 2.79134815-20.14625186 8.37404445L516.36906667 602.81742222 365.15081483 451.72053333c-11.16539259-11.16539259-29.24847409-11.16539259-40.41386668 0-11.16539259 11.16539259-11.16539259 29.24847409 0 40.41386667l171.3645037 171.3645037c11.16539259 11.16539259 29.24847409 11.16539259 40.41386667 0l171.3645037-171.3645037c11.16539259-11.16539259 11.16539259-29.24847409 0-40.41386667-5.5826963-5.5826963-12.86447408-8.37404445-20.26761481-8.37404445z"  horiz-adv-x="1024" />

    


  </font>
</defs>
</svg>
